<?xml version="1.0" encoding="UTF-8"?>
<svg id="Layer_1" data-name="Layer 1" xmlns="http://www.w3.org/2000/svg" viewBox="0 0 856.16 827.66">
  <defs>
    <style>
      .cls-1 {
        fill: #3c59a8;
      }
    </style>
  </defs>
  <line class="cls-1" x1="2.63" y1="575.55" y2="575.47"/>
  <path class="cls-1" d="M830.29,270.32c-.18-.46-.35-.94-.53-1.4-11.27-29.82-25.92-58.05-43.5-84.2C713.9,77.06,591.85,4.53,451.51,.2,221.1-6.9,28.6,172.53,21.56,400.96c-3.05,99.04,29.25,191.04,85.64,264.07,73.62,95.38,188.29,158.4,318.81,162.42,230.42,7.11,422.91-172.33,429.96-400.76,1.7-54.98-7.5-107.78-25.67-156.38Zm-402.77,507.77c-98.54-3.04-186.58-45.14-249.48-110.87-63.69-66.52-101.62-157.25-98.57-256.15C85.54,214.49,251.2,60.09,449.48,66.21c101.06,3.12,191.09,47.33,254.29,115.97,23.19,25.2,42.78,53.69,57.95,84.64,.24,.46,.46,.93,.68,1.41,24.17,49.8,36.95,105.94,35.13,164.99-6.06,196.59-171.72,350.99-370,344.88Z"/>
  <path class="cls-1" d="M509.79,530.09c-1.05,33.92-28.42,60.61-61.12,59.6l-219.45-6.77c-12.95-.4-24.76-7.42-31.37-18.55-29.15-49.11-43.85-107.64-38.45-169.6,12.41-142.51,130.14-253.92,273.12-258.39,44.75-1.4,87.12,7.49,125.02,24.43,8.72,3.9,5.73,16.97-3.82,16.68l-102.48-3.16c-59.91-1.85-112.67,30.96-138.27,79.98-9.84,18.8-15.67,40-16.36,62.54-1.32,42.65,16.01,81.63,44.76,109.43,24.95,24.13,58.54,39.81,96,42.11,1.59,.1,3.18,.18,4.79,.23,2.25,.07,4.48,.09,6.71,.06,29.82-.36,55.99,20.69,60.29,50.21,.53,3.64,.75,7.39,.63,11.21Z"/>
  <path class="cls-1" d="M379.79,314.4c1.05-33.92,28.17-60.62,60.56-59.62l217.08,6.69c12.9,.4,24.76,7.32,31.31,18.45,26.35,44.78,40.78,97.41,39.06,153.35-4.83,156.56-134.46,279.6-289.55,274.82-37.71-1.16-73.45-9.78-105.88-24.41-8.7-3.92-5.7-16.97,3.84-16.67l101.48,3.13c59.34,1.83,111.62-31,136.99-80.02,9.75-18.8,15.53-40.01,16.23-62.54,1.32-42.65-15.83-81.62-44.31-109.41-24.7-24.12-57.98-39.79-95.08-42.09-1.58-.1-3.15-.18-4.74-.23-2.22-.07-4.43-.09-6.63-.06-27.65,.34-52.42-17.88-58.71-44.81-1.24-5.3-1.82-10.87-1.64-16.59Z"/>
</svg>